<svg width="16" height="16" viewBox="0 0 16 16" fill="none" xmlns="http://www.w3.org/2000/svg">
<path d="M9.89743 1.69255C9.79196 1.58722 9.64899 1.52805 9.49993 1.52805C9.35087 1.52805 9.2079 1.58722 9.10243 1.69255L1.69243 9.10255C1.58709 9.20802 1.52793 9.35099 1.52793 9.50005C1.52793 9.64912 1.58709 9.79208 1.69243 9.89755L2.49418 10.6986C2.8862 10.4795 3.33898 10.3944 3.78376 10.4562C4.22854 10.5179 4.64102 10.7232 4.95854 11.0407C5.27607 11.3582 5.48129 11.7707 5.54304 12.2155C5.60479 12.6603 5.5197 13.113 5.30068 13.5051L6.10243 14.3076C6.15467 14.3598 6.21669 14.4013 6.28496 14.4296C6.35323 14.4579 6.42641 14.4724 6.50031 14.4724C6.57421 14.4724 6.64738 14.4579 6.71565 14.4296C6.78392 14.4013 6.84594 14.3598 6.89818 14.3076L14.3074 6.8983C14.4128 6.79283 14.4719 6.64987 14.4719 6.5008C14.4719 6.35174 14.4128 6.20877 14.3074 6.1033L13.5049 5.30005C13.1129 5.51907 12.6601 5.60417 12.2154 5.54241C11.7706 5.48066 11.3581 5.27544 11.0406 4.95792C10.723 4.64039 10.5178 4.22791 10.4561 3.78313C10.3943 3.33835 10.4794 2.88557 10.6984 2.49355L9.89743 1.69255ZM8.30743 0.897553C8.46413 0.740852 8.65016 0.61655 8.8549 0.531744C9.05964 0.446938 9.27907 0.403289 9.50068 0.403289C9.72229 0.403289 9.94173 0.446938 10.1465 0.531744C10.3512 0.61655 10.5372 0.740852 10.6939 0.897553L11.5722 1.77655C11.9554 2.15905 11.8872 2.6968 11.6937 3.02155C11.5873 3.20069 11.5436 3.41016 11.5696 3.61688C11.5955 3.8236 11.6896 4.01579 11.8369 4.16311C11.9842 4.31043 12.1764 4.40448 12.3831 4.43041C12.5898 4.45634 12.7993 4.41267 12.9784 4.3063C13.3032 4.11355 13.8409 4.04455 14.2234 4.4278L15.1024 5.30755C15.2591 5.46425 15.3834 5.65028 15.4682 5.85502C15.553 6.05976 15.5967 6.2792 15.5967 6.5008C15.5967 6.72241 15.553 6.94185 15.4682 7.14659C15.3834 7.35132 15.2591 7.53735 15.1024 7.69405L7.69393 15.1026C7.53723 15.2593 7.3512 15.3836 7.14646 15.4684C6.94173 15.5532 6.72229 15.5968 6.50068 15.5968C6.27907 15.5968 6.05964 15.5532 5.8549 15.4684C5.65016 15.3836 5.46413 15.2593 5.30743 15.1026L4.42843 14.2243C4.04593 13.8418 4.11343 13.3033 4.30693 12.9793C4.4133 12.8002 4.45697 12.5907 4.43104 12.384C4.40511 12.1773 4.31106 11.9851 4.16374 11.8377C4.01642 11.6904 3.82423 11.5964 3.61751 11.5704C3.41079 11.5445 3.20132 11.5882 3.02218 11.6946C2.69743 11.8873 2.15968 11.9556 1.77718 11.5723L0.897432 10.6933C0.740731 10.5366 0.616429 10.3506 0.531623 10.1458C0.446817 9.9411 0.403168 9.72166 0.403168 9.50005C0.403168 9.27845 0.446817 9.05901 0.531623 8.85427C0.616429 8.64953 0.740731 8.4635 0.897432 8.3068L8.30743 0.897553Z" fill="#6C757D"/>
</svg>
